<svg width="10" height="12" viewBox="0 0 10 12" fill="none" xmlns="http://www.w3.org/2000/svg">
<path fill-rule="evenodd" clip-rule="evenodd" d="M8.38212 1.64648C7.3284 0.574166 5.62333 0.574166 4.5696 1.64648L1.05997 5.21802C0.898175 5.38267 0.636804 5.38267 0.475012 5.21802C0.313219 5.05337 0.313219 4.78322 0.475012 4.61857L3.98049 1.0512C5.3578 -0.350401 7.58972 -0.350401 8.96703 1.0512C10.3443 2.45281 10.3443 4.72409 8.96703 6.1257L4.25016 10.9258C3.2794 11.9136 1.70297 11.9136 0.728066 10.9258C-0.242689 9.93789 -0.242689 8.33365 0.728066 7.34577L0.732218 7.34155L4.29579 3.75733C4.29579 3.75733 4.29579 3.75732 4.29579 3.7531C4.85169 3.18739 5.75193 3.14938 6.32857 3.7362C6.89692 4.31457 6.89692 5.2476 6.32857 5.82597L3.83531 8.36322C3.67351 8.52786 3.41219 8.52786 3.24625 8.36322C3.08446 8.19857 3.08446 7.93259 3.24625 7.76794L5.74362 5.2307C5.98423 4.98162 5.98423 4.58055 5.74362 4.33147C5.50715 4.09506 5.1338 4.09508 4.88074 4.3526L1.31717 7.94105C0.670005 8.59963 0.670005 9.67191 1.31717 10.3305C1.96434 10.9891 3.01393 10.9891 3.6611 10.3305L8.38212 5.5262C9.43585 4.45388 9.43585 2.71879 8.38212 1.64648Z" fill="#6B6B6B"/>
</svg>
